<svg width="24" height="24" viewBox="0 0 24 24" fill="none" xmlns="http://www.w3.org/2000/svg">
<g clip-path="url(#clip0_6_2941)">
<path d="M18.6667 15.8672C18.6667 15.7717 18.658 15.7023 18.6406 15.6589C18.6233 15.6155 18.5451 15.5438 18.4062 15.444C18.2674 15.3442 18.0916 15.2357 17.8789 15.1185C17.6662 15.0013 17.4601 14.8863 17.2604 14.7734C17.0608 14.6606 16.8633 14.5521 16.668 14.4479C16.4727 14.3437 16.349 14.2786 16.2969 14.2526C16.2535 14.2266 16.171 14.1701 16.0495 14.0833C15.928 13.9965 15.8194 13.9314 15.724 13.888C15.6285 13.8446 15.5373 13.8229 15.4505 13.8229C15.3203 13.8229 15.1619 13.9119 14.9753 14.0898C14.7886 14.2678 14.6172 14.4631 14.4609 14.6758C14.3047 14.8885 14.1376 15.0838 13.9596 15.2617C13.7817 15.4397 13.6363 15.5286 13.5234 15.5286C13.4627 15.5286 13.3911 15.5135 13.3086 15.4831C13.2261 15.4527 13.1589 15.4245 13.1068 15.3984C13.0547 15.3724 12.9809 15.3312 12.8854 15.2747C12.7899 15.2183 12.7292 15.1814 12.7031 15.1641C11.8438 14.6866 11.1059 14.1376 10.4896 13.5169C9.87326 12.8963 9.32205 12.1562 8.83594 11.2969C8.81858 11.2708 8.78168 11.2101 8.72526 11.1146C8.66884 11.0191 8.6276 10.9453 8.60156 10.8932C8.57552 10.8411 8.54731 10.7739 8.51693 10.6914C8.48654 10.6089 8.47135 10.5373 8.47135 10.4766C8.47135 10.3637 8.56033 10.2183 8.73828 10.0404C8.91623 9.86241 9.11155 9.69531 9.32422 9.53906C9.53689 9.38281 9.7322 9.21137 9.91016 9.02474C10.0881 8.83811 10.1771 8.67969 10.1771 8.54948C10.1771 8.46267 10.1554 8.37153 10.112 8.27604C10.0686 8.18056 10.0035 8.07205 9.91667 7.95052C9.82986 7.82899 9.77344 7.74653 9.7474 7.70312C9.72135 7.65104 9.65625 7.52734 9.55208 7.33203C9.44792 7.13672 9.33941 6.93924 9.22656 6.73958C9.11372 6.53993 8.9987 6.33377 8.88151 6.12109C8.76432 5.90842 8.65582 5.73264 8.55599 5.59375C8.45616 5.45486 8.38455 5.37674 8.34115 5.35938C8.29774 5.34201 8.2283 5.33333 8.13281 5.33333C7.71615 5.33333 7.27778 5.42882 6.81771 5.61979C6.4184 5.80208 6.07118 6.21224 5.77604 6.85026C5.4809 7.48828 5.33333 8.05469 5.33333 8.54948C5.33333 8.68837 5.34418 8.83594 5.36589 8.99219C5.38759 9.14844 5.40929 9.28082 5.43099 9.38932C5.45269 9.49783 5.49175 9.64106 5.54818 9.81901C5.6046 9.99696 5.648 10.125 5.67839 10.2031C5.70877 10.2812 5.76302 10.4245 5.84115 10.6328C5.91927 10.8411 5.96701 10.9714 5.98438 11.0234C6.50521 12.447 7.44488 13.8381 8.80339 15.1966C10.1619 16.5551 11.553 17.4948 12.9766 18.0156C13.0286 18.033 13.1589 18.0807 13.3672 18.1589C13.5755 18.237 13.7188 18.2912 13.7969 18.3216C13.875 18.352 14.003 18.3954 14.181 18.4518C14.3589 18.5082 14.5022 18.5473 14.6107 18.569C14.7192 18.5907 14.8516 18.6124 15.0078 18.6341C15.1641 18.6558 15.3116 18.6667 15.4505 18.6667C15.9453 18.6667 16.5117 18.5191 17.1497 18.224C17.7878 17.9288 18.1979 17.5816 18.3802 17.1823C18.5712 16.7222 18.6667 16.2839 18.6667 15.8672ZM22 5.75V18.25C22 19.283 21.6332 20.1662 20.8997 20.8997C20.1662 21.6332 19.283 22 18.25 22H5.75C4.71701 22 3.83377 21.6332 3.10026 20.8997C2.36675 20.1662 2 19.283 2 18.25V5.75C2 4.71701 2.36675 3.83377 3.10026 3.10026C3.83377 2.36675 4.71701 2 5.75 2H18.25C19.283 2 20.1662 2.36675 20.8997 3.10026C21.6332 3.83377 22 4.71701 22 5.75Z" fill="#94A3B8"/>
</g>
<defs>
<clipPath id="clip0_6_2941">
<rect width="20" height="20" fill="white" transform="translate(2 2)"/>
</clipPath>
</defs>
</svg>
